<svg width="96" height="95" viewBox="0 0 96 95" fill="none" xmlns="http://www.w3.org/2000/svg">
<path d="M31.4069 80.7656H27.5512L21.4136 70.8509L38.7248 62.1953L40.9281 66.6176L31.4069 80.7656Z" fill="#263238"/>
<path d="M95.4273 57.018V56.8921C95.0811 54.0908 91.5087 42.5395 89.1323 35.2687C87.8277 31.1811 86.3149 27.1628 84.5999 23.2295C81.4524 15.8959 76.1489 4.09274 74.4492 1.8108L74.3705 1.70065C73.9911 1.21744 73.4949 0.838746 72.9287 0.600256C72.3625 0.361766 71.7449 0.271309 71.1341 0.337428C70.5233 0.403547 69.9394 0.624055 69.4373 0.978181C68.9352 1.33231 68.5316 1.80841 68.2644 2.36162C65.9352 7.08288 60.7418 17.1234 55.4383 22.2066C50.7643 26.7705 26.0564 37.3618 9.84674 44.0817C7.99314 44.8563 6.31402 45.9953 4.90908 47.4312C3.50413 48.8672 2.40199 50.5708 1.66806 52.4408C0.934126 54.3109 0.583376 56.3093 0.636616 58.3175C0.689856 60.3257 1.146 62.3028 1.97799 64.1313C3.59655 67.6895 6.54037 70.4752 10.1824 71.895C13.8245 73.3148 17.877 73.2565 21.4768 71.7326C36.9467 65.17 61.1038 55.3813 67.6664 55.3813C75.0158 55.3813 85.6701 58.9694 90.6588 60.8107C91.2332 61.0108 91.8488 61.0623 92.4483 60.9604C93.0479 60.8585 93.6119 60.6065 94.0879 60.228C94.5639 59.8494 94.9363 59.3565 95.1705 58.7952C95.4047 58.234 95.493 57.6226 95.4273 57.018Z" fill="#3E0563"/>
<path d="M21.3822 71.732C17.7825 73.2559 13.73 73.3142 10.0879 71.8944C6.44585 70.4746 3.50202 67.689 1.88346 64.1308C1.05416 62.2964 0.60264 60.3138 0.555816 58.3013C0.508992 56.2887 0.867816 54.2873 1.61091 52.4163C2.354 50.5454 3.46616 48.8432 4.88108 47.4112C6.29601 45.9792 7.98474 44.8467 9.84663 44.0812L14.0643 42.2871C14.0643 42.2871 21.6498 48.5034 23.7271 57.5997C25.8045 66.696 25.1277 70.111 25.1277 70.111L21.3822 71.732Z" fill="#FA9706"/>
<path d="M25.1118 70.1109C24.9701 70.1109 25.1118 68.3641 24.9229 65.5943C24.7909 63.9745 24.549 62.3656 24.199 60.7786C23.7519 58.8441 23.1628 56.9452 22.4364 55.0973C21.0572 51.7535 19.2192 48.6179 16.9755 45.7807C15.2286 43.609 13.9696 42.4129 14.0641 42.3027C14.4291 42.4992 14.7632 42.7485 15.0555 43.0424C15.8937 43.7762 16.6824 44.5648 17.4161 45.403C19.852 48.2082 21.8039 51.3993 23.1918 54.8455C23.9421 56.7389 24.5317 58.692 24.9544 60.6842C25.2782 62.3127 25.4625 63.9659 25.5052 65.6257C25.5559 66.7394 25.5138 67.8554 25.3793 68.9621C25.3556 69.3574 25.2651 69.7458 25.1118 70.1109Z" fill="#263238"/>
<rect x="24.7412" y="76.3438" width="18.8808" height="22.0325" transform="rotate(-32.4834 24.7412 76.3438)" fill="#FA9706"/>
</svg>
